<svg width="361" height="279" viewBox="0 0 361 279" fill="none" xmlns="http://www.w3.org/2000/svg">
<path d="M6.75335 23.9577V7.98584H20.2601" stroke="#00484D" stroke-width="3.43577" stroke-linecap="round" stroke-linejoin="round"/>
<path d="M353.751 23.9577V7.98584H340.245" stroke="#00484D" stroke-width="3.43577" stroke-linecap="round" stroke-linejoin="round"/>
<path d="M353.751 254.111V270.083H340.245" stroke="#00484D" stroke-width="3.43577" stroke-linecap="round" stroke-linejoin="round"/>
<path d="M6.75335 254.111V270.083H20.2601" stroke="#00484D" stroke-width="3.43577" stroke-linecap="round" stroke-linejoin="round"/>
<path d="M273.313 111.925L274.34 111.478C275.393 111.02 276.154 109.906 276.143 108.58L273.313 111.925ZM273.313 111.925L272.267 111.505C271.19 111.072 270.396 109.965 270.384 108.628L273.313 111.925ZM273.236 105.5L273.235 105.5C271.676 105.513 270.369 106.883 270.384 108.628L273.236 105.5ZM273.236 105.5C274.796 105.487 276.127 106.835 276.143 108.58L273.236 105.5ZM272.162 112.462L273.316 112.273L274.471 112.432C276.827 112.757 277.942 114.201 278.49 115.6C278.766 116.307 278.894 116.999 278.952 117.517C278.967 117.647 278.977 117.766 278.984 117.87L267.706 117.964C267.711 117.862 267.719 117.747 267.731 117.62C267.78 117.107 267.897 116.42 268.162 115.714C268.688 114.317 269.787 112.852 272.162 112.462Z" stroke="#064C51"/>
<path d="M214.654 256.283L141.85 256.24C133.093 256.235 125.998 249.134 126 240.378L126.036 57.8564C126.037 49.0953 133.143 41.9953 141.904 42L214.708 42.0428C223.465 42.0481 230.559 49.1486 230.558 57.9049L230.522 240.427C230.521 249.188 223.415 256.288 214.654 256.283Z" fill="#00484D"/>
<path d="M214.631 48.4985L200.516 48.4906C198.623 48.4896 197.087 50.0931 197.088 52.0715L197.087 54.6318C197.087 56.6107 195.551 58.2143 193.659 58.2132L166.145 58.1968C164.252 58.1958 162.718 56.5907 162.718 54.6117L162.719 52.0515C162.719 50.0725 161.184 48.4674 159.291 48.4663L154.327 48.4632L141.973 48.4563C135.837 48.4531 130.861 53.4253 130.859 59.5612L130.824 237.716C130.823 243.849 135.792 248.822 141.924 248.825L214.584 248.868C220.719 248.871 225.695 243.899 225.697 237.763L225.732 59.6082C225.732 53.4749 220.764 48.5022 214.631 48.4985Z" fill="white"/>
<path d="M215.694 62.9722C215.695 63.0197 213.859 63.0741 211.595 63.0926C209.33 63.1111 207.494 63.0879 207.494 63.0398C207.493 62.9923 209.328 62.9384 211.594 62.9194C213.858 62.9009 215.694 62.9242 215.694 62.9722Z" fill="#263238"/>
<path d="M215.711 65.0704C215.712 65.1179 213.876 65.1723 211.612 65.1907C209.347 65.2092 207.511 65.186 207.511 65.138C207.51 65.0904 209.346 65.0366 211.611 65.0176C213.875 64.9991 215.711 65.0223 215.711 65.0704Z" fill="#263238"/>
<path d="M215.729 67.1682C215.729 67.2157 213.893 67.2701 211.629 67.2886C209.364 67.3071 207.528 67.2838 207.528 67.2358C207.528 67.1883 209.363 67.1344 211.628 67.1154C213.892 67.0969 215.728 67.1207 215.729 67.1682Z" fill="#263238"/>
<path d="M175.032 237.932C175.029 238.782 174.347 239.467 173.51 239.463C172.672 239.459 171.996 238.767 172 237.918C172.004 237.069 172.685 236.382 173.523 236.386C174.36 236.39 175.036 237.082 175.032 237.932Z" fill="#B1CED0"/>
<path d="M179.73 237.953C179.727 238.802 179.045 239.488 178.208 239.484C177.37 239.481 176.694 238.789 176.698 237.939C176.701 237.09 177.383 236.404 178.221 236.408C179.058 236.411 179.734 237.103 179.73 237.953Z" fill="#B1CED0"/>
<path d="M184.429 237.975C184.425 238.824 183.743 239.511 182.906 239.506C182.068 239.503 181.393 238.811 181.396 237.961C181.4 237.111 182.082 236.426 182.919 236.43C183.756 236.433 184.432 237.125 184.429 237.975Z" fill="#B1CED0"/>
<g filter="url(#filter0_d_2808_11302)">
<path d="M79 140.709C79 139.308 80.136 138.172 81.5374 138.172H119.598V186.383H81.5374C80.136 186.383 79 185.247 79 183.845V140.709Z" fill="#00484D"/>
</g>
<path d="M85.4399 144.515H111.448V148.321H85.4399V144.515Z" fill="#145C61"/>
<path d="M85.4399 154.031H104.47V157.837H85.4399V154.031Z" fill="#145C61"/>
<path d="M98.7613 175.281C98.7613 178.96 95.7792 181.942 92.1006 181.942C88.422 181.942 85.4399 178.96 85.4399 175.281C85.4399 171.603 88.422 168.621 92.1006 168.621C95.7792 168.621 98.7613 171.603 98.7613 175.281Z" fill="#145C61"/>
<path d="M104.471 175.281C104.471 178.96 101.489 181.942 97.81 181.942C94.1314 181.942 91.1493 178.96 91.1493 175.281C91.1493 171.603 94.1314 168.621 97.81 168.621C101.489 168.621 104.471 171.603 104.471 175.281Z" fill="#003439"/>
<path d="M110.18 175.281C110.18 178.96 107.198 181.942 103.519 181.942C99.8407 181.942 96.8586 178.96 96.8586 175.281C96.8586 171.603 99.8407 168.621 103.519 168.621C107.198 168.621 110.18 171.603 110.18 175.281Z" fill="#002025"/>
<path d="M120.33 135H126.039V189.554H120.33V135Z" fill="#145C61"/>
<rect x="135" y="105" width="86" height="32" rx="3" fill="#1E666B"/>
<path d="M152.848 114.413C153.838 114.408 154.829 114.408 155.82 114.411C155.831 114.886 155.819 115.361 155.829 115.835C155.158 115.891 154.479 115.822 153.807 115.872C153.638 116.207 153.527 116.567 153.387 116.914C152.687 118.688 152.03 120.479 151.334 122.255C151.057 122.969 150.787 123.686 150.515 124.402C150.407 124.69 150.29 124.977 150.219 125.278C149.081 125.305 147.942 125.285 146.804 125.338C146.167 125.346 145.53 125.34 144.892 125.356C143.692 125.443 142.485 125.356 141.284 125.435C141.114 125.442 140.944 125.435 140.774 125.43C140.831 125.138 140.902 124.849 141.016 124.573C142.393 124.522 143.767 124.403 145.143 124.332C146.456 124.247 147.769 124.176 149.082 124.087C149.277 123.591 149.486 123.099 149.641 122.589C146.655 122.579 143.67 122.6 140.684 122.577C140.468 120.547 140.194 118.522 140 116.489C141.907 116.37 143.812 116.205 145.717 116.055C147.481 115.919 149.245 115.779 151.009 115.646C151.428 115.603 151.852 115.599 152.267 115.523C152.402 115.51 152.456 115.374 152.5 115.266C152.608 114.979 152.721 114.693 152.848 114.413ZM148.996 116.977C148.981 117.67 148.988 118.363 148.986 119.057C149.658 119.064 150.334 119.123 151.003 119.029C151.095 118.934 151.13 118.802 151.179 118.683C151.41 118.043 151.674 117.414 151.888 116.769C150.922 116.821 149.959 116.9 148.996 116.977ZM146.428 117.18C146.43 117.394 146.424 117.607 146.404 117.82C146.369 118.231 146.413 118.642 146.429 119.053C147.043 119.064 147.657 119.062 148.271 119.054C148.273 118.378 148.275 117.701 148.269 117.024C147.656 117.09 147.04 117.113 146.428 117.18ZM143.882 117.389C143.877 117.944 143.879 118.5 143.877 119.055C144.499 119.06 145.122 119.067 145.744 119.05C145.755 118.444 145.754 117.838 145.738 117.232C145.121 117.306 144.498 117.315 143.882 117.389ZM141.292 117.586C141.361 118.075 141.398 118.567 141.46 119.057C142.041 119.058 142.621 119.063 143.201 119.055C143.211 118.516 143.2 117.976 143.195 117.436C142.561 117.487 141.925 117.516 141.292 117.586ZM141.515 119.53C141.586 120.153 141.671 120.773 141.729 121.398C142.228 121.439 142.733 121.444 143.232 121.39C143.234 120.77 143.237 120.15 143.231 119.531C142.659 119.528 142.088 119.53 141.515 119.53ZM143.882 119.531C143.874 120.154 143.882 120.778 143.875 121.401C144.501 121.445 145.133 121.436 145.76 121.395C145.764 120.773 145.762 120.151 145.757 119.529C145.132 119.533 144.507 119.529 143.882 119.531ZM146.4 120.527C146.424 120.812 146.421 121.1 146.421 121.386C147.036 121.44 147.653 121.431 148.27 121.418C148.272 120.789 148.264 120.16 148.271 119.531C147.658 119.529 147.045 119.533 146.432 119.529C146.422 119.862 146.375 120.193 146.4 120.527ZM148.986 121.261C148.996 121.32 148.957 121.444 149.064 121.422C149.408 121.412 149.768 121.465 150.103 121.391C150.379 120.785 150.597 120.152 150.835 119.53C150.222 119.529 149.609 119.531 148.996 119.529C148.982 120.106 148.988 120.683 148.986 121.261Z" fill="white"/>
<path d="M150.178 125.619C150.537 125.547 150.925 125.661 151.196 125.905C151.689 126.319 151.707 127.149 151.267 127.606C150.909 128.017 150.241 128.123 149.778 127.833C149.314 127.565 149.079 126.972 149.23 126.46C149.374 126.045 149.727 125.681 150.178 125.619Z" fill="white"/>
<path d="M141.302 125.921C141.574 125.846 141.886 125.833 142.139 125.977C142.5 126.168 142.752 126.567 142.726 126.979C142.717 127.528 142.208 128.016 141.653 127.993C141.174 128.012 140.725 127.652 140.629 127.187C140.488 126.676 140.795 126.09 141.302 125.921Z" fill="white"/>
<path d="M161.798 111.577C161.84 111.543 161.879 111.482 161.941 111.491C162.038 111.555 162.112 111.647 162.195 111.727C162.845 112.376 163.496 113.024 164.147 113.671C164.25 113.776 164.374 113.87 164.428 114.013C164.006 114.013 163.585 114.019 163.164 114.009C163.143 114.083 163.117 114.157 163.12 114.235C163.122 115.958 163.12 117.681 163.121 119.403C163.091 120.173 163.111 120.945 163.105 121.716C163.098 122.46 163.254 123.243 163.723 123.84C164.192 124.466 164.965 124.817 165.737 124.857C166.1 124.94 166.468 124.858 166.83 124.823C167.224 124.744 167.604 124.601 167.942 124.384C168.364 124.062 168.691 123.621 168.881 123.126C169.014 122.719 169.09 122.293 169.089 121.863C169.09 119.698 169.09 117.532 169.089 115.367C169.092 115.195 169.069 115.015 169.142 114.853C169.228 114.653 169.432 114.495 169.655 114.501C170.067 114.494 170.481 114.494 170.894 114.501C171.195 114.494 171.458 114.777 171.456 115.071C171.457 117.188 171.456 119.304 171.456 121.421C171.47 122.064 171.416 122.71 171.275 123.337C171.083 124.198 170.681 125.025 170.051 125.652C169.367 126.334 168.47 126.798 167.52 126.979C166.828 127.128 166.112 127.142 165.408 127.086C164.401 126.996 163.393 126.676 162.59 126.048C162.084 125.668 161.667 125.174 161.365 124.619C160.98 123.874 160.773 123.043 160.731 122.208C160.714 121.667 160.722 121.126 160.72 120.584C160.716 118.397 160.713 116.208 160.721 114.02C160.291 114.006 159.86 114.019 159.429 114.013C159.456 113.873 159.583 113.792 159.675 113.694C160.383 112.989 161.092 112.285 161.798 111.577ZM161.746 112.165C161.272 112.657 160.763 113.117 160.306 113.625C160.565 113.656 160.838 113.582 161.086 113.679C161.075 113.957 161.083 114.236 161.081 114.514C161.107 114.513 161.161 114.512 161.188 114.512C161.187 114.183 161.196 113.854 161.182 113.526C160.992 113.524 160.801 113.527 160.611 113.519C160.661 113.39 160.77 113.302 160.865 113.207C161.214 112.863 161.558 112.513 161.909 112.17C162.215 112.416 162.47 112.719 162.757 112.989C162.915 113.166 163.124 113.303 163.234 113.518C163.042 113.527 162.85 113.524 162.659 113.524C162.649 113.854 162.653 114.185 162.655 114.516C162.682 114.516 162.738 114.516 162.765 114.516C162.759 114.236 162.769 113.956 162.758 113.677C163.008 113.586 163.28 113.653 163.539 113.626C163.045 113.09 162.511 112.59 161.997 112.072C161.91 111.966 161.811 112.106 161.746 112.165ZM161.799 112.464C161.504 112.771 161.186 113.056 160.903 113.374C161.041 113.402 161.227 113.321 161.325 113.448C161.351 116.286 161.324 119.124 161.337 121.962C161.394 123.11 161.691 124.333 162.535 125.168C163.138 125.802 163.961 126.196 164.813 126.369C165.347 126.496 165.899 126.483 166.444 126.477C167.579 126.456 168.741 126.065 169.562 125.263C170.004 124.852 170.3 124.31 170.505 123.748C170.759 123.052 170.835 122.305 170.826 121.568C170.821 119.415 170.837 117.261 170.819 115.108C170.445 115.124 170.06 115.058 169.694 115.147C169.702 116.992 169.695 118.837 169.697 120.683C169.695 121.274 169.706 121.866 169.679 122.457C169.561 123.45 169.035 124.413 168.186 124.968C167.883 125.137 167.572 125.3 167.227 125.365C166.912 125.474 166.577 125.472 166.25 125.517C166.15 125.527 166.049 125.524 165.949 125.512C165.688 125.472 165.421 125.48 165.165 125.408C164.928 125.338 164.678 125.298 164.458 125.181C164.212 125.053 163.945 124.95 163.75 124.745C163.047 124.209 162.659 123.356 162.524 122.502C162.516 122.207 162.463 121.914 162.47 121.618C162.475 120.995 162.464 120.371 162.476 119.749C162.501 118.486 162.457 117.223 162.474 115.96C162.501 115.451 162.456 114.94 162.507 114.433C162.514 114.09 162.508 113.747 162.509 113.404C162.651 113.372 162.797 113.38 162.941 113.373C162.627 113.038 162.297 112.717 161.967 112.397C161.902 112.329 161.847 112.426 161.799 112.464Z" fill="white"/>
<path d="M208.579 113.79C208.572 113.618 208.692 113.402 208.886 113.422C209.541 113.424 210.196 113.416 210.851 113.426C210.978 113.465 211.102 113.598 211.085 113.741C211.084 114.66 211.088 115.579 211.083 116.497C212.077 116.539 213.074 116.497 214.07 116.519C214.174 116.527 214.278 116.554 214.372 116.601C214.466 116.706 214.488 116.853 214.484 116.989C214.481 117.433 214.485 117.878 214.482 118.323C214.494 118.513 214.323 118.707 214.126 118.685C213.125 118.69 212.122 118.677 211.121 118.691L211.09 118.72C211.078 119.537 211.089 120.356 211.085 121.174C211.094 121.694 211.027 122.247 211.265 122.731C211.465 123.158 211.939 123.388 212.394 123.415C212.72 123.424 213.058 123.457 213.369 123.336C213.651 123.261 213.915 123.048 214.221 123.121C214.444 123.308 214.491 123.615 214.629 123.859C214.752 124.147 214.932 124.416 214.999 124.724C215.015 124.979 214.745 125.126 214.55 125.231C214.08 125.475 213.564 125.631 213.038 125.692C212.453 125.812 211.846 125.786 211.261 125.683C210.289 125.56 209.348 124.985 208.924 124.087C208.775 123.833 208.699 123.549 208.627 123.267C208.542 123.017 208.583 122.749 208.522 122.495C208.494 121.224 208.535 119.951 208.502 118.682C208.003 118.689 207.505 118.685 207.006 118.685C206.805 118.714 206.659 118.504 206.674 118.321C206.674 117.86 206.675 117.399 206.674 116.938C206.666 116.818 206.712 116.706 206.754 116.595C207.056 116.476 207.384 116.522 207.701 116.514C207.992 116.515 208.283 116.511 208.574 116.517C208.583 115.608 208.572 114.698 208.579 113.79Z" fill="white"/>
<path d="M175.782 116.435C176.727 116.105 177.775 116.102 178.733 116.379C179.649 116.633 180.459 117.212 181.04 117.956C181.758 118.88 182.12 120.06 182.096 121.224C182.102 122.196 181.861 123.178 181.354 124.013C180.842 124.827 180.089 125.505 179.19 125.865C178.564 126.108 177.889 126.243 177.215 126.21C176.628 126.166 176.034 126.065 175.507 125.793C175.163 125.646 174.866 125.42 174.565 125.204C174.554 126.552 174.565 127.9 174.559 129.247C174.564 129.564 174.283 129.88 173.957 129.865C173.512 129.865 173.066 129.863 172.62 129.866C172.282 129.903 171.962 129.581 171.991 129.246C171.991 125.162 171.991 121.077 171.991 116.992C171.969 116.749 172.123 116.518 172.338 116.414C172.534 116.322 172.757 116.345 172.968 116.343C173.215 116.349 173.464 116.331 173.711 116.352C173.92 116.368 174.127 116.481 174.226 116.668C174.321 116.861 174.314 117.082 174.324 117.291C174.759 116.93 175.241 116.612 175.782 116.435ZM174.375 118.147C174.279 118.248 174.158 118.366 174.007 118.348C173.855 118.312 173.738 118.171 173.737 118.014C173.733 117.67 173.668 117.329 173.69 116.985C173.33 116.957 172.967 116.975 172.606 116.975C172.599 120.032 172.605 123.088 172.603 126.145C172.609 127.174 172.591 128.204 172.613 129.232C173.052 129.228 173.49 129.233 173.929 129.229C173.926 127.642 173.928 126.055 173.928 124.468C173.911 124.252 174.174 124.032 174.379 124.154C174.556 124.248 174.65 124.438 174.798 124.567C175.316 125.042 175.957 125.407 176.66 125.514C177.286 125.654 177.938 125.581 178.554 125.427C179.464 125.176 180.255 124.56 180.766 123.774C181.26 123.021 181.459 122.114 181.489 121.224C181.497 121.003 181.454 120.786 181.436 120.566C181.329 119.497 180.817 118.466 179.997 117.763C179.357 117.194 178.515 116.87 177.662 116.817C177.332 116.815 176.998 116.794 176.672 116.856C175.779 116.975 174.94 117.45 174.375 118.147Z" fill="white"/>
<path d="M203.919 116.775C204.587 116.407 205.371 116.315 206.123 116.374C206.193 116.392 206.26 116.42 206.33 116.443C206.464 116.775 206.36 117.141 206.353 117.487C206.361 117.701 206.287 117.908 206.294 118.122C206.284 118.347 206.318 118.595 206.195 118.794C206.087 118.922 205.916 118.899 205.775 118.853C205.267 118.795 204.735 118.811 204.262 119.026C203.921 119.187 203.591 119.408 203.391 119.733C203.114 120.105 203.014 120.571 202.982 121.024C202.978 122.321 202.981 123.618 202.98 124.915C202.977 125.077 202.992 125.241 202.965 125.401C202.894 125.498 202.796 125.602 202.663 125.587C202.021 125.589 201.379 125.588 200.737 125.588C200.563 125.596 200.389 125.442 200.408 125.263C200.408 122.456 200.407 119.65 200.409 116.843C200.398 116.643 200.61 116.526 200.787 116.522C201.215 116.508 201.643 116.52 202.071 116.516C202.227 116.519 202.429 116.539 202.501 116.702C202.63 116.908 202.573 117.157 202.589 117.387C202.577 117.659 202.638 117.924 202.662 118.194C202.809 117.98 202.88 117.722 203.047 117.52C203.29 117.224 203.575 116.952 203.919 116.775Z" fill="white"/>
<path d="M193.892 116.559C194.391 116.441 194.895 116.566 195.395 116.585C195.664 116.67 195.943 116.727 196.207 116.829C196.477 116.964 196.762 117.079 196.995 117.275C197.116 117.371 197.234 117.484 197.39 117.52C197.388 117.263 197.4 116.989 197.554 116.771C197.695 116.699 197.853 116.653 198.013 116.665C198.505 116.674 198.998 116.654 199.489 116.674C199.691 116.682 199.867 116.825 199.868 117.037C199.872 119.728 199.867 122.42 199.87 125.111C199.865 125.264 199.893 125.427 199.818 125.568C199.774 125.697 199.627 125.749 199.5 125.74C198.956 125.737 198.411 125.741 197.867 125.738C197.724 125.739 197.57 125.643 197.552 125.494C197.533 125.182 197.503 124.871 197.454 124.562C197.196 124.762 197.008 125.041 196.723 125.208C196.552 125.307 196.397 125.43 196.224 125.526C195.905 125.684 195.562 125.795 195.21 125.853C194.852 125.947 194.479 125.915 194.112 125.915C193.745 125.889 193.389 125.789 193.042 125.67C192.648 125.569 192.315 125.327 191.967 125.129C191.635 124.841 191.284 124.561 191.044 124.187C190.754 123.84 190.581 123.42 190.408 123.009C190.275 122.538 190.138 122.061 190.133 121.568C190.128 121.224 190.12 120.88 190.141 120.537C190.203 120.127 190.32 119.726 190.45 119.332C190.591 119.038 190.724 118.736 190.9 118.46C191.137 118.175 191.321 117.837 191.632 117.621C191.8 117.498 191.932 117.329 192.117 117.229C192.424 117.066 192.712 116.858 193.053 116.771C193.332 116.697 193.601 116.577 193.892 116.559ZM194.453 118.923C193.614 119.126 192.936 119.838 192.774 120.683C192.629 121.188 192.731 121.725 192.919 122.205C193.084 122.544 193.299 122.879 193.618 123.094C194.45 123.755 195.734 123.726 196.558 123.068C197.096 122.622 197.395 121.918 197.363 121.224C197.368 120.717 197.25 120.194 196.944 119.78C196.59 119.26 195.988 118.931 195.363 118.882C195.061 118.795 194.753 118.873 194.453 118.923Z" fill="white"/>
<path d="M185.979 116.795C187.016 116.519 188.129 116.502 189.166 116.787C189.602 116.939 190.091 117.053 190.426 117.391C190.483 117.568 190.436 117.758 190.351 117.918C190.182 118.27 190.016 118.625 189.847 118.977C189.793 119.084 189.738 119.198 189.639 119.271C189.491 119.308 189.333 119.289 189.199 119.217C188.581 118.915 187.866 118.871 187.193 118.968C186.419 119.077 185.667 119.528 185.316 120.24C185.056 120.719 185.052 121.289 185.13 121.815C185.297 122.706 186.07 123.407 186.952 123.573C187.194 123.629 187.446 123.611 187.69 123.652C188.276 123.626 188.871 123.513 189.381 123.209C189.524 123.109 189.698 123.093 189.867 123.117C190.147 123.528 190.376 123.971 190.637 124.394C190.723 124.538 190.833 124.704 190.762 124.878C190.684 125.009 190.546 125.089 190.424 125.176C189.793 125.572 189.076 125.836 188.333 125.919C187.844 126.01 187.344 125.981 186.849 125.973C186.042 125.899 185.241 125.661 184.551 125.229C183.695 124.675 183.014 123.841 182.688 122.873C182.548 122.433 182.46 121.977 182.427 121.518C182.414 121.237 182.473 120.961 182.48 120.681C182.58 119.726 183.031 118.824 183.691 118.128C184.305 117.479 185.113 117.016 185.979 116.795Z" fill="white"/>
<path d="M176.496 118.008C177.312 117.888 178.182 118.073 178.851 118.564C179.274 118.886 179.624 119.308 179.838 119.795C180.212 120.666 180.214 121.685 179.852 122.561C179.63 123.047 179.3 123.486 178.868 123.807C177.845 124.59 176.336 124.599 175.254 123.924C174.738 123.586 174.333 123.085 174.102 122.514C173.739 121.52 173.783 120.357 174.321 119.434C174.773 118.653 175.603 118.126 176.496 118.008ZM176.494 118.644C176.193 118.7 175.901 118.807 175.636 118.96C175.068 119.294 174.697 119.896 174.558 120.529C174.511 120.857 174.439 121.192 174.514 121.522C174.554 122.11 174.806 122.687 175.234 123.099C175.622 123.511 176.183 123.727 176.741 123.771C177.038 123.84 177.341 123.767 177.634 123.711C178.69 123.47 179.477 122.441 179.478 121.371C179.476 121.078 179.5 120.777 179.414 120.493C179.271 119.888 178.897 119.337 178.376 118.995C177.824 118.649 177.134 118.513 176.494 118.644Z" fill="white"/>
<path d="M157.534 111H158.021V130.482H157.534V111Z" fill="white"/>
<rect x="134" y="177" width="86" height="32" rx="3" fill="#1E666B"/>
<path fill-rule="evenodd" clip-rule="evenodd" d="M148.046 182H148.803C149.095 182.177 149.379 182.369 149.666 182.555C150.867 182.619 151.509 183.649 151.962 184.624C152.126 184.598 152.459 184.545 152.625 184.519L151.806 202.932C147.872 202.192 143.937 201.437 140 200.713C140.494 196.781 141.009 192.849 141.518 188.917C141.587 188.569 141.574 188.18 141.774 187.87C142.516 187.517 143.348 187.406 144.101 187.079C144.759 185.028 145.698 182.553 148.046 182ZM144.974 186.815C145.455 185.397 146.064 183.861 147.378 183.014C147.404 183.002 147.431 182.99 147.458 182.977C147.857 182.797 148.345 182.576 148.747 182.84C147.513 183.559 146.886 184.944 146.643 186.301C146.095 186.5 145.537 186.667 144.974 186.815ZM150.286 185.187C150.252 184.547 150.173 183.912 150.05 183.283C150.677 183.618 151.087 184.214 151.251 184.9C150.928 184.995 150.606 185.09 150.286 185.187ZM149.577 185.402C148.867 185.638 148.156 185.855 147.436 186.063C147.767 185.062 148.238 183.874 149.331 183.515C149.454 184.138 149.546 184.767 149.577 185.402ZM144.06 194.029C143.489 192.439 144.29 190.532 145.757 189.731C146.958 189.073 148.435 189.029 149.722 189.444C149.49 190.243 149.213 191.026 148.955 191.815C148.184 191.554 147.314 191.333 146.528 191.658C146.003 191.904 145.911 192.662 146.336 193.046C146.925 193.596 147.649 193.996 148.181 194.607C149.505 196.102 148.921 198.842 147.04 199.584C145.588 200.147 143.922 199.571 142.816 198.557C142.993 197.948 143.174 197.339 143.356 196.73C144.04 197.149 144.777 197.8 145.634 197.592C146.233 197.459 146.336 196.637 146.008 196.195C145.417 195.422 144.416 194.984 144.06 194.029Z" fill="white"/>
<path d="M152.902 184.437C153.386 184.87 153.782 185.415 154.33 185.771C154.909 185.873 155.495 185.883 156.079 185.922C156.859 191.129 157.63 196.338 158.39 201.547C156.291 202.006 154.192 202.466 152.093 202.922L152.902 184.437Z" fill="white"/>
<path d="M203.589 186.936C204.656 186.102 206.121 186.012 207.39 186.355C207.224 187.013 207.065 187.671 206.907 188.331C206.395 188.321 205.806 188.134 205.36 188.48C204.754 188.877 204.582 189.644 204.5 190.318C205.081 190.315 205.66 190.308 206.241 190.305C206.118 190.955 206.005 191.608 205.872 192.256C205.286 192.25 204.703 192.258 204.119 192.274C203.699 194.631 203.231 196.981 202.803 199.336C201.953 199.359 201.101 199.352 200.251 199.352C200.686 196.976 201.167 194.608 201.569 192.225C201.185 192.222 200.801 192.222 200.417 192.222C200.54 191.585 200.658 190.947 200.788 190.31C201.17 190.31 201.551 190.31 201.933 190.308C202.176 189.074 202.562 187.75 203.589 186.936Z" fill="white"/>
<path d="M170.731 186.355C171.576 186.345 172.42 186.345 173.265 186.35C172.973 188.065 172.638 189.773 172.295 191.478C173.247 190.395 174.955 189.609 176.288 190.495C177.177 191.114 177.174 192.322 177.056 193.29C176.757 195.317 176.283 197.317 175.943 199.341C175.088 199.352 174.233 199.352 173.378 199.344C173.68 197.831 173.946 196.313 174.256 194.803C174.384 194.05 174.589 193.249 174.343 192.499C174 192.102 173.386 192.123 172.991 192.427C172.177 193.06 171.827 194.091 171.632 195.066C171.358 196.487 171.077 197.908 170.833 199.334C169.978 199.354 169.126 199.354 168.273 199.341C169.075 195.01 169.932 190.689 170.731 186.355Z" fill="white"/>
<path d="M198.381 186.633C199.062 186.264 200.115 186.556 200.283 187.378C200.637 188.496 199.398 189.597 198.32 189.146C197.273 188.727 197.409 187.07 198.381 186.633Z" fill="white"/>
<path d="M163.546 190.941C164.915 189.958 166.8 189.93 168.325 190.547C168.118 191.146 167.923 191.748 167.736 192.354C166.976 192.134 166.096 191.827 165.338 192.219C164.831 192.488 164.854 193.256 165.333 193.542C166.116 194.093 167.081 194.502 167.524 195.411C168.105 196.645 167.544 198.252 166.352 198.908C164.823 199.776 162.88 199.666 161.316 198.944C161.513 198.334 161.728 197.73 161.913 197.118C162.765 197.403 163.687 197.853 164.596 197.541C165.207 197.369 165.294 196.484 164.844 196.084C164.173 195.542 163.305 195.214 162.824 194.464C162.01 193.361 162.476 191.702 163.546 190.941Z" fill="white"/>
<path d="M181.361 190.375C183.086 189.682 185.429 190.345 186.058 192.221C186.77 194.594 185.856 197.466 183.744 198.838C181.973 199.995 179.014 199.788 178.1 197.646C177.083 194.917 178.525 191.33 181.361 190.375ZM181.806 192.316C180.624 193.34 180.227 195.111 180.45 196.609C180.575 197.502 181.763 197.919 182.398 197.267C183.442 196.238 183.752 194.64 183.678 193.225C183.652 192.321 182.539 191.707 181.806 192.316Z" fill="white"/>
<path d="M187.984 190.279C188.724 190.279 189.464 190.279 190.204 190.271C190.173 190.732 190.14 191.195 190.063 191.653C190.726 190.844 191.65 190.138 192.738 190.117C193.616 190.069 194.504 190.535 194.937 191.305C195.5 192.27 195.472 193.443 195.344 194.515C195.06 196.225 194.212 197.948 192.715 198.9C191.594 199.617 190.147 199.707 188.913 199.228C188.747 200.477 188.448 201.703 188.268 202.947C187.408 202.97 186.548 202.968 185.688 202.958C186.474 198.734 187.388 194.533 187.984 190.279ZM190.826 192.641C189.594 193.842 189.73 195.682 189.297 197.223C189.763 197.587 190.416 197.784 190.969 197.482C191.929 196.932 192.369 195.823 192.623 194.799C192.769 194.111 192.894 193.335 192.546 192.682C192.205 192.042 191.253 192.157 190.826 192.641Z" fill="white"/>
<path d="M197.2 190.327C198.055 190.33 198.912 190.327 199.77 190.33C199.183 193.335 198.625 196.348 198.031 199.351C197.189 199.348 196.347 199.351 195.507 199.348C196.048 196.338 196.644 193.338 197.2 190.327Z" fill="white"/>
<path d="M206.703 190.328C207.592 190.328 208.482 190.328 209.376 190.321C209.629 192.407 209.814 194.501 210.021 196.59C210.727 194.478 211.542 192.402 212.356 190.328C213.236 190.326 214.119 190.326 215 190.331C213.822 192.842 212.688 195.377 211.465 197.865C210.285 200.123 208.833 202.583 206.266 203.422L206.532 203.499H206.199C205.792 202.828 205.618 202.055 205.362 201.323C206.222 200.942 207.1 200.507 207.704 199.762C207.999 199.375 208.38 198.932 208.201 198.413C207.704 195.717 207.218 193.019 206.703 190.328Z" fill="white"/>
<g opacity="0.4">
<rect width="86" height="19" rx="3" transform="matrix(1 0 0 -1 134 232)" fill="#3C8489" stroke="#3C8489"/>
</g>
<rect x="134" y="141" width="86" height="32" rx="3" fill="#1E666B"/>
<path d="M141.444 149.191C141.975 148.949 142.57 149.01 143.137 149.001C149.771 149.01 156.405 148.998 163.041 149.007C164.281 148.987 165.423 150.1 165.391 151.351C165.4 153.961 165.394 156.573 165.394 159.185C165.472 160.46 164.348 161.653 163.07 161.647C160.586 161.669 158.099 161.644 155.615 161.658C155.959 162.488 156.293 163.323 156.653 164.145C155.145 163.314 153.67 162.419 152.119 161.674C148.896 161.624 145.668 161.674 142.443 161.651C141.205 161.709 140.003 160.653 140.019 159.391C139.972 156.711 140.03 154.03 140.014 151.349C139.954 150.413 140.61 149.549 141.444 149.191ZM149.791 151.519C149.173 153.128 148.911 154.851 148.741 156.559C148.155 155.127 148.058 153.538 147.425 152.132C147.009 152.119 146.516 152.085 146.288 152.515C145.417 153.976 144.735 155.547 143.833 156.991C143.432 155.021 143.103 153.041 142.752 151.062C142.364 150.787 141.805 150.644 141.404 150.981C141.015 151.234 141.068 151.758 141.138 152.157C141.449 154.142 141.791 156.125 142.286 158.074C142.523 158.938 142.709 159.867 143.345 160.543C144.155 160.395 144.567 159.637 144.943 158.988C145.514 157.927 146.049 156.846 146.563 155.756C147.168 157.347 147.732 159.059 149.034 160.23C149.307 160.487 149.766 160.595 150.086 160.357C150.619 159.892 150.332 159.12 150.402 158.509C150.534 156.143 150.845 153.739 151.756 151.532C152.018 150.905 151.367 150.189 150.715 150.355C150.18 150.5 149.99 151.062 149.791 151.519ZM153.764 151.725C151.792 152.857 151.145 155.588 151.859 157.651C152.369 159.207 154.489 159.881 155.796 158.889C157.477 157.58 158.032 155.06 157.278 153.103C156.781 151.745 155.053 151.089 153.764 151.725ZM160.624 151.601C160.033 151.751 159.572 152.188 159.207 152.656C158.155 154.03 157.813 155.935 158.359 157.582C158.789 158.867 160.29 159.675 161.593 159.236C162.896 158.82 163.632 157.495 163.93 156.237C164.169 155.113 164.18 153.869 163.643 152.824C163.115 151.754 161.741 151.239 160.624 151.601Z" fill="white"/>
<path d="M168.459 152.316C169.401 151.611 170.635 151.598 171.751 151.748C171.794 152.327 171.796 152.909 171.798 153.491C171.288 153.417 170.749 153.212 170.245 153.424C168.651 153.955 168.578 156.602 170.084 157.281C170.63 157.543 171.232 157.393 171.796 157.29C171.794 157.849 171.794 158.411 171.794 158.973C170.518 159.286 169.077 159.067 168.083 158.165C166.516 156.602 166.606 153.621 168.459 152.316Z" fill="white"/>
<path d="M173.886 151.93C175.249 151.331 177.131 151.684 177.881 153.063C178.573 154.424 178.557 156.118 177.978 157.517C177.136 159.446 174.155 159.65 172.901 158.043C172.223 157.074 172.111 155.825 172.201 154.677C172.292 153.573 172.818 152.398 173.886 151.93ZM174.763 153.444C174.054 154.182 174.199 155.351 174.271 156.291C174.273 156.893 174.665 157.651 175.379 157.501C175.997 157.492 176.203 156.808 176.283 156.306C176.362 155.42 176.458 154.431 175.961 153.643C175.726 153.242 175.115 153.148 174.763 153.444Z" fill="white"/>
<path d="M179.464 151.857C180.265 151.859 181.064 151.857 181.865 151.862C182.134 153.173 182.411 154.483 182.689 155.794C182.886 154.465 183.211 153.162 183.528 151.859C184.348 151.857 185.169 151.859 185.988 151.859C186.31 154.216 186.617 156.573 186.955 158.928C186.317 158.928 185.682 158.928 185.044 158.928C184.869 157.318 184.706 155.707 184.538 154.098C184.099 155.694 183.799 157.323 183.367 158.921C182.931 158.926 182.494 158.926 182.06 158.921C181.657 157.31 181.232 155.702 180.854 154.086C180.623 155.694 180.513 157.314 180.341 158.928C179.741 158.928 179.141 158.928 178.544 158.93C178.859 156.573 179.137 154.212 179.464 151.857Z" fill="white"/>
<path d="M188.077 151.859C188.883 151.861 189.691 151.864 190.497 151.855C190.794 153.162 191.081 154.471 191.296 155.796C191.542 154.482 191.889 153.191 192.124 151.877C192.959 151.852 193.794 151.859 194.631 151.866C194.937 154.223 195.248 156.577 195.593 158.93C194.951 158.93 194.308 158.93 193.666 158.925C193.487 157.316 193.4 155.693 193.095 154.1C192.829 155.731 192.348 157.316 191.998 158.93C191.571 158.93 191.143 158.93 190.716 158.93C190.286 157.323 189.91 155.7 189.469 154.095C189.317 155.702 189.129 157.305 189.01 158.914C188.402 158.93 187.793 158.932 187.186 158.932C187.488 156.575 187.815 154.221 188.077 151.859Z" fill="white"/>
<path d="M200.533 151.86C202.068 151.959 203.922 151.48 205.148 152.673C206.106 153.586 205.681 155.246 204.522 155.777C205.05 156.82 205.515 157.894 206.066 158.926C205.394 158.928 204.723 158.928 204.051 158.928C203.494 157.854 203.004 156.746 202.46 155.663C202.458 156.753 202.465 157.841 202.465 158.928C201.82 158.928 201.175 158.928 200.531 158.928C200.535 156.574 200.535 154.217 200.533 151.86ZM202.46 153.194C202.451 153.771 202.451 154.351 202.467 154.929C202.986 154.87 203.837 154.738 203.722 154.015C203.705 153.362 202.966 153.257 202.46 153.194Z" fill="white"/>
<path d="M207.12 152.41C208.076 151.617 209.388 151.566 210.56 151.754C210.567 152.329 210.567 152.907 210.569 153.482C210.001 153.394 209.388 153.184 208.844 153.48C207.664 154.055 207.552 155.758 208.208 156.765C208.741 157.533 209.759 157.49 210.565 157.28C210.567 157.842 210.567 158.406 210.565 158.968C209.224 159.306 207.696 159.019 206.717 158.001C205.323 156.456 205.408 153.692 207.12 152.41Z" fill="white"/>
<path d="M211.097 151.865C212.382 151.863 213.666 151.865 214.951 151.863C214.947 152.375 214.944 152.89 214.935 153.402C214.289 153.402 213.642 153.402 212.995 153.402C212.995 153.819 212.993 154.237 212.993 154.656C213.557 154.651 214.121 154.651 214.685 154.649C214.687 155.144 214.687 155.641 214.689 156.135C214.123 156.138 213.559 156.138 212.995 156.138C212.995 156.574 212.993 157.013 212.993 157.451C213.662 157.447 214.331 157.447 215 157.456C214.969 157.948 214.949 158.443 214.942 158.938C213.66 158.926 212.379 158.935 211.097 158.933C211.097 156.576 211.099 154.222 211.097 151.865Z" fill="white"/>
<path d="M196.11 151.88C197.415 151.873 198.718 151.875 200.023 151.878C200.014 152.39 200 152.905 199.956 153.415C199.318 153.406 198.678 153.406 198.042 153.406C198.038 153.825 198.035 154.244 198.033 154.664C198.595 154.662 199.157 154.662 199.718 154.66C199.721 155.154 199.723 155.651 199.725 156.148C199.163 156.148 198.599 156.148 198.038 156.148C198.038 156.585 198.038 157.023 198.035 157.462C198.696 157.458 199.358 157.46 200.023 157.46C200.018 157.952 200.018 158.445 200.023 158.939C198.716 158.948 197.411 158.944 196.106 158.942C196.115 156.589 196.108 154.235 196.11 151.88Z" fill="white"/>
<path d="M154.073 157.596C152.886 156.447 153.285 154.314 154.552 153.392C155.151 152.967 155.666 153.748 155.733 154.272C156.004 155.541 155.568 157.367 154.073 157.596Z" fill="white"/>
<path d="M160.287 157.301C159.388 155.978 159.936 153.699 161.534 153.205C162.66 154.037 162.476 155.743 161.809 156.813C161.507 157.283 160.769 157.878 160.287 157.301Z" fill="white"/>
<path d="M132.09 47.9612H142.564L123.711 86.016C123.711 86.016 123.711 91.2529 123.711 94.0459C122.319 97.8532 120.083 100.939 116.03 101.028C111.875 101.12 109.441 97.9438 108 94.0459C108.001 91.2529 108 86.016 108 86.016L132.09 47.9612Z" fill="#3C8489"/>
<path d="M223.91 47.9612H213.436L232.289 86.016C232.289 86.016 232.289 91.602 232.289 94.395C233.681 98.2023 235.917 101.288 239.97 101.378C244.125 101.469 246.559 98.2929 248 94.395C247.999 91.602 248 86.016 248 86.016L223.91 47.9612Z" fill="#3C8489"/>
<path d="M172.937 47.9612H183.76L185.855 86.3651C185.855 86.3651 185.855 91.602 185.855 94.7441C184.337 98.3099 182.05 101.028 178.174 101.028C174.299 101.028 172.012 98.3099 170.493 94.7441C170.494 91.602 170.493 86.3651 170.493 86.3651L172.937 47.9612Z" fill="#3C8489"/>
<path d="M162.813 47.9612H172.938L170.494 86.016C170.494 86.016 170.494 91.9511 170.494 95.0933C168.975 98.659 166.688 101.378 162.813 101.378C158.937 101.378 156.65 98.659 155.132 95.0933C155.132 91.9511 155.132 86.016 155.132 86.016L162.813 47.9612Z" fill="#1E666B"/>
<path d="M142.564 47.9612H152.688L139.421 86.016C139.421 86.016 139.421 91.602 139.421 94.7441C137.903 98.3099 135.267 101.028 131.391 101.028C127.516 101.028 125.229 98.3099 123.711 94.7441C123.711 91.602 123.711 86.016 123.711 86.016L142.564 47.9612Z" fill="#1E666B"/>
<path d="M213.436 47.9612H203.312L216.578 86.016C216.578 86.016 216.578 91.602 216.578 94.7441C218.097 98.3099 220.733 101.028 224.608 101.028C228.484 101.028 230.771 98.3099 232.289 94.7441C232.289 91.602 232.289 86.016 232.289 86.016L213.436 47.9612Z" fill="#1E666B"/>
<path d="M203.649 47.9602H193.175L200.506 86.3641C200.506 86.3641 200.856 92.2993 200.856 95.4414C202.374 99.0072 205.359 101.726 209.235 101.726C213.11 101.726 215.397 99.0072 216.915 95.4414C216.915 92.2993 216.915 86.3641 216.915 86.3641L203.649 47.9602Z" fill="#3C8489"/>
<path d="M193.885 47.9612H183.761L185.506 86.016C185.506 86.016 185.506 92.3002 185.506 95.4424C187.025 99.0082 189.311 101.727 193.187 101.727C197.063 101.727 199.349 99.0082 200.868 95.4424C200.867 92.3002 200.868 86.016 200.868 86.016L193.885 47.9612Z" fill="#1E666B"/>
<path d="M152.34 47.9612H162.814L155.482 86.016C155.482 86.016 155.133 92.3002 155.133 95.4424C153.614 99.0082 150.629 101.727 146.754 101.727C142.878 101.727 140.591 99.0082 139.073 95.4424C139.073 92.3002 139.073 86.016 139.073 86.016L152.34 47.9612Z" fill="#3C8489"/>
<path opacity="0.985" fill-rule="evenodd" clip-rule="evenodd" d="M230.154 185.715C231.482 186.393 232.775 187.148 234.033 187.977C235.863 189.643 237.075 191.69 237.669 194.119C237.903 197.614 237.984 201.116 237.912 204.625C237.939 206.458 237.912 208.29 237.831 210.121C237.438 211.082 236.764 211.324 235.811 210.848C235.586 210.659 235.451 210.416 235.407 210.121C235.326 208.29 235.299 206.458 235.326 204.625C235.353 202.039 235.326 199.453 235.245 196.867C235.056 193.2 233.359 190.506 230.154 188.786C228.949 188.107 227.656 187.838 226.275 187.977C222.847 188.088 220.234 189.597 218.436 192.503C217.975 193.37 217.652 194.286 217.466 195.251C217.246 198.371 217.165 201.496 217.223 204.625V210.121C216.798 211.074 216.097 211.317 215.122 210.848C214.915 210.62 214.753 210.378 214.637 210.121V204.625C214.61 201.392 214.637 198.16 214.718 194.927C216.141 188.79 219.993 185.557 226.275 185.23C227.596 185.182 228.889 185.343 230.154 185.715Z" fill="#003439"/>
<path opacity="0.98" fill-rule="evenodd" clip-rule="evenodd" d="M245.67 204.625C245.239 204.625 244.808 204.625 244.377 204.625C243.946 204.625 243.515 204.625 243.084 204.625C243.111 202.039 243.084 199.453 243.003 196.867C242.499 191.379 239.509 188.416 234.033 187.978C232.775 187.148 231.482 186.394 230.154 185.715C235.266 184.305 239.603 185.544 243.165 189.432C244.412 191.065 245.22 192.897 245.589 194.928C245.67 198.16 245.697 201.392 245.67 204.625Z" fill="#145C61"/>
<path opacity="0.983" fill-rule="evenodd" clip-rule="evenodd" d="M230.154 188.786C226.948 190.506 225.251 193.2 225.062 196.867C224.981 199.453 224.955 202.039 224.981 204.625C224.12 204.625 223.257 204.625 222.395 204.625C222.324 201.116 222.404 197.614 222.638 194.119C223.232 191.69 224.444 189.643 226.275 187.978C227.656 187.838 228.949 188.107 230.154 188.786Z" fill="#145C61"/>
<path opacity="0.999" fill-rule="evenodd" clip-rule="evenodd" d="M214.637 204.625C214.637 206.457 214.637 208.289 214.637 210.121C214.637 212.006 214.637 213.892 214.637 215.778C213.799 216.347 212.964 216.94 212.132 217.556C212.051 221.003 212.024 224.451 212.051 227.9C214.637 227.9 217.223 227.9 219.809 227.9C219.836 224.451 219.809 221.003 219.729 217.556C218.897 216.94 218.062 216.347 217.223 215.778C217.223 213.892 217.223 212.006 217.223 210.121C217.223 208.289 217.223 206.457 217.223 204.625C218.947 204.625 220.671 204.625 222.395 204.625C223.257 204.625 224.12 204.625 224.982 204.625C228.43 204.625 231.878 204.625 235.326 204.625C235.299 206.458 235.326 208.29 235.407 210.121C235.451 210.416 235.586 210.659 235.811 210.848C236.764 211.324 237.438 211.082 237.831 210.121C237.912 208.29 237.939 206.458 237.912 204.625C239.636 204.625 241.36 204.625 243.084 204.625C243.515 204.625 243.946 204.625 244.377 204.625C244.711 210.656 244.98 216.691 245.185 222.728C242.33 222.728 239.474 222.728 236.619 222.728C235.732 233.931 234.87 245.138 234.033 256.347C223.689 256.347 213.344 256.347 203 256.347C203.808 239.106 204.616 221.866 205.424 204.625C208.495 204.625 211.566 204.625 214.637 204.625Z" fill="#327A7F"/>
<path opacity="0.999" fill-rule="evenodd" clip-rule="evenodd" d="M244.377 204.625C244.808 204.625 245.239 204.625 245.67 204.625C246.532 204.625 247.394 204.625 248.256 204.625C248.712 210.65 249.035 216.684 249.226 222.728C247.879 222.728 246.532 222.728 245.185 222.728C244.98 216.691 244.711 210.656 244.377 204.625Z" fill="#00484D"/>
<path fill-rule="evenodd" clip-rule="evenodd" d="M248.256 204.625C249.118 204.625 249.98 204.625 250.842 204.625C251.298 210.65 251.621 216.684 251.812 222.728C250.95 222.728 250.088 222.728 249.226 222.728C249.035 216.684 248.712 210.65 248.256 204.625Z" fill="#1E666B"/>
<path opacity="0.986" fill-rule="evenodd" clip-rule="evenodd" d="M250.842 204.625C252.189 204.625 253.536 204.625 254.883 204.625C255.109 210.661 255.379 216.696 255.691 222.728C254.398 222.728 253.105 222.728 251.812 222.728C251.621 216.684 251.298 210.65 250.842 204.625Z" fill="#00484D"/>
<path fill-rule="evenodd" clip-rule="evenodd" d="M214.637 210.121C214.754 210.378 214.915 210.62 215.122 210.848C216.097 211.317 216.798 211.075 217.223 210.121C217.223 212.006 217.223 213.892 217.223 215.778C216.795 215.513 216.364 215.243 215.93 214.969C215.497 215.243 215.066 215.513 214.637 215.778C214.637 213.892 214.637 212.006 214.637 210.121Z" fill="#003439"/>
<path fill-rule="evenodd" clip-rule="evenodd" d="M217.223 215.778C218.062 216.347 218.897 216.94 219.729 217.556C219.809 221.003 219.836 224.451 219.809 227.9C217.223 227.9 214.637 227.9 212.051 227.9C212.024 224.451 212.051 221.003 212.132 217.556C212.964 216.94 213.799 216.347 214.637 215.778C215.065 215.513 215.497 215.243 215.93 214.969C216.364 215.243 216.795 215.513 217.223 215.778Z" fill="#002025"/>
<path fill-rule="evenodd" clip-rule="evenodd" d="M245.185 222.728C246.532 222.728 247.879 222.728 249.226 222.728C250.088 222.728 250.95 222.728 251.812 222.728C253.105 222.728 254.398 222.728 255.691 222.728C258.816 222.728 261.941 222.728 265.066 222.728C265.923 233.174 266.731 243.626 267.49 254.084C267.571 254.836 267.624 255.59 267.652 256.347C256.445 256.347 245.239 256.347 234.033 256.347C234.87 245.138 235.732 233.932 236.619 222.728C239.474 222.728 242.33 222.728 245.185 222.728Z" fill="#00484D"/>
<path fill-rule="evenodd" clip-rule="evenodd" d="M265.066 222.728C266.359 222.728 267.652 222.728 268.945 222.728C269.732 231.194 270.594 239.653 271.531 248.104C270.243 250.144 268.896 252.137 267.49 254.084C266.731 243.626 265.923 233.174 265.066 222.728Z" fill="#003439"/>
<path fill-rule="evenodd" clip-rule="evenodd" d="M268.945 222.728C269.807 222.728 270.669 222.728 271.531 222.728C272.419 231.125 273.254 239.53 274.036 247.942C275.226 249.894 276.492 251.78 277.834 253.599C277.962 254.509 278.016 255.425 277.996 256.347C277.457 256.347 276.918 256.347 276.38 256.347C275.236 254.546 274.051 252.768 272.824 251.013C271.597 252.768 270.411 254.546 269.268 256.347C268.729 256.347 268.19 256.347 267.652 256.347C267.624 255.59 267.57 254.836 267.49 254.084C268.896 252.137 270.243 250.144 271.531 248.104C270.594 239.653 269.732 231.194 268.945 222.728Z" fill="#00484D"/>
<path opacity="0.982" fill-rule="evenodd" clip-rule="evenodd" d="M271.531 222.728C272.877 222.728 274.225 222.728 275.571 222.728C276.293 233.02 277.047 243.311 277.834 253.599C276.492 251.78 275.226 249.894 274.036 247.942C273.254 239.53 272.419 231.125 271.531 222.728Z" fill="#003439"/>
<path fill-rule="evenodd" clip-rule="evenodd" d="M243.892 229.193C244.665 229.054 245.23 229.323 245.589 230.001C245.643 233.826 245.697 237.651 245.751 241.477C246.043 242.848 246.824 243.844 248.094 244.467C249.699 244.724 251.315 244.778 252.943 244.628C254.475 244.175 255.471 243.178 255.933 241.638C255.987 237.759 256.041 233.88 256.095 230.001C256.724 229.07 257.478 228.962 258.358 229.678C258.624 233.65 258.678 237.637 258.519 241.638C257.952 244.792 256.094 246.65 252.943 247.215C249.647 248.007 246.818 247.225 244.458 244.871C243.774 243.898 243.343 242.82 243.165 241.638C243.057 237.759 243.057 233.88 243.165 230.001C243.33 229.648 243.573 229.378 243.892 229.193Z" fill="#E9EDF0"/>
<path fill-rule="evenodd" clip-rule="evenodd" d="M276.379 256.347C274.009 256.347 271.638 256.347 269.268 256.347C270.411 254.546 271.597 252.768 272.824 251.013C274.051 252.768 275.236 254.546 276.379 256.347Z" fill="#003439"/>
<path opacity="0.973" fill-rule="evenodd" clip-rule="evenodd" d="M254 134.404C254 134.714 254 135.023 254 135.333C253.898 136.028 253.647 136.666 253.248 137.247C253.068 137.5 252.868 137.737 252.646 137.958C250.957 139.576 249.202 141.111 247.383 142.566C247.128 142.73 246.872 142.73 246.617 142.566C244.798 141.111 243.043 139.576 241.354 137.958C240.818 137.431 240.426 136.811 240.178 136.099C240.106 135.843 240.046 135.588 240 135.333C240 135.023 240 134.714 240 134.404C240.185 133.139 240.823 132.178 241.914 131.519C243.168 130.856 244.435 130.828 245.715 131.437C246.194 131.711 246.623 132.053 247 132.462C248.217 131.128 249.694 130.713 251.43 131.218C252.664 131.695 253.48 132.566 253.877 133.829C253.92 134.024 253.961 134.216 254 134.404ZM243.527 132.271C244.321 132.197 245.023 132.411 245.633 132.913C245.952 133.232 246.271 133.551 246.59 133.87C246.864 134.033 247.137 134.033 247.41 133.87C247.814 133.439 248.242 133.038 248.695 132.667C249.619 132.149 250.549 132.14 251.484 132.64C252.454 133.277 252.859 134.175 252.701 135.333C252.608 135.793 252.425 136.213 252.154 136.591C251.869 136.931 251.564 137.255 251.238 137.562C249.876 138.815 248.482 140.027 247.055 141.199C247.018 141.217 246.982 141.217 246.945 141.199C245.518 140.027 244.124 138.815 242.762 137.562C242.436 137.255 242.131 136.931 241.846 136.591C241.139 135.591 241.075 134.552 241.654 133.474C242.112 132.814 242.736 132.413 243.527 132.271Z" fill="#00484D"/>
<path opacity="0.97" fill-rule="evenodd" clip-rule="evenodd" d="M281.959 174.79C281.959 175.008 281.959 175.226 281.959 175.444C281.441 177.621 280.929 179.804 280.424 181.994C280.229 182.558 279.84 182.906 279.257 183.038C275.15 183.052 271.043 183.065 266.936 183.079C266.531 183.212 266.361 183.492 266.424 183.918C266.508 184.193 266.692 184.35 266.977 184.389C271.179 184.403 275.382 184.416 279.585 184.43C280.009 184.638 280.125 184.958 279.933 185.392C279.843 185.496 279.74 185.585 279.626 185.658C280.037 186.702 279.818 187.588 278.971 188.319C277.837 188.995 276.82 188.852 275.921 187.889C275.46 187.199 275.371 186.462 275.655 185.679C274.399 185.665 273.144 185.679 271.889 185.719C272.296 186.975 271.928 187.923 270.784 188.564C269.773 188.934 268.906 188.723 268.184 187.93C267.693 187.232 267.604 186.489 267.918 185.699C267.55 185.685 267.181 185.672 266.813 185.658C265.999 185.526 265.46 185.069 265.196 184.287C264.959 183.078 265.416 182.267 266.567 181.851C266.691 181.83 266.813 181.81 266.936 181.79C266.027 178.317 265.092 174.851 264.132 171.392C264.097 171.358 264.063 171.324 264.029 171.289C263.17 171.276 262.31 171.262 261.45 171.249C261.242 171.183 261.092 171.053 261 170.86C261 170.71 261 170.559 261 170.409C261.092 170.216 261.242 170.086 261.45 170.02C262.351 169.993 263.251 169.993 264.152 170.02C264.738 170.112 265.14 170.433 265.36 170.982C265.619 171.923 265.871 172.865 266.117 173.807C271.029 173.824 275.942 173.845 280.854 173.868C281.416 173.947 281.785 174.254 281.959 174.79ZM266.485 175.076C267.386 175.076 268.287 175.076 269.187 175.076C269.307 175.991 269.429 176.905 269.556 177.819C268.778 177.826 268 177.819 267.222 177.798C266.954 176.898 266.709 175.99 266.485 175.076ZM270.456 175.117C271.35 175.072 272.251 175.072 273.158 175.117C273.158 176.018 273.158 176.918 273.158 177.819C272.38 177.819 271.602 177.819 270.825 177.819C270.724 176.91 270.601 176.009 270.456 175.117ZM274.427 175.117C275.314 175.11 276.201 175.117 277.088 175.137C276.95 176.028 276.827 176.921 276.719 177.819C275.955 177.819 275.191 177.819 274.427 177.819C274.427 176.918 274.427 176.018 274.427 175.117ZM278.357 175.117C279.135 175.117 279.912 175.117 280.69 175.117C280.499 176.005 280.301 176.892 280.097 177.778C279.397 177.832 278.694 177.832 277.988 177.778C278.121 176.893 278.244 176.006 278.357 175.117ZM267.55 179.088C268.273 179.088 268.996 179.088 269.719 179.088C269.842 179.988 269.965 180.889 270.088 181.79C269.528 181.796 268.969 181.79 268.409 181.769C268.351 181.75 268.303 181.716 268.266 181.667C268.021 180.809 267.782 179.949 267.55 179.088ZM270.988 179.129C271.704 179.088 272.428 179.074 273.158 179.088C273.158 179.988 273.158 180.889 273.158 181.79C272.558 181.79 271.957 181.79 271.357 181.79C271.252 180.895 271.129 180.008 270.988 179.129ZM274.427 179.088C275.137 179.088 275.846 179.088 276.556 179.088C276.433 179.988 276.31 180.889 276.187 181.79C275.601 181.79 275.014 181.79 274.427 181.79C274.427 180.889 274.427 179.988 274.427 179.088ZM277.825 179.088C278.48 179.074 279.135 179.088 279.79 179.129C279.596 179.993 279.385 180.853 279.155 181.708C279.124 181.733 279.09 181.754 279.053 181.769C278.534 181.79 278.016 181.796 277.497 181.79C277.6 180.888 277.709 179.988 277.825 179.088ZM269.678 185.679C270.449 185.651 270.811 186.02 270.763 186.784C270.457 187.486 269.972 187.643 269.31 187.255C268.856 186.753 268.883 186.275 269.392 185.822C269.491 185.772 269.587 185.724 269.678 185.679ZM277.456 185.679C278.193 185.658 278.554 186.013 278.541 186.743C278.385 187.261 278.037 187.5 277.497 187.459C276.823 187.21 276.625 186.753 276.904 186.088C277.049 185.894 277.233 185.758 277.456 185.679Z" fill="#00484D"/>
<path d="M276 148L276.707 149.293L278 150L276.707 150.707L276 152L275.293 150.707L274 150L275.293 149.293L276 148Z" fill="#145C61"/>
<path d="M245.371 107L246.209 108.533L247.741 109.371L246.209 110.209L245.371 111.741L244.533 110.209L243 109.371L244.533 108.533L245.371 107Z" fill="#145C61"/>
<path d="M264.371 204L265.209 205.533L266.741 206.371L265.209 207.209L264.371 208.741L263.533 207.209L262 206.371L263.533 205.533L264.371 204Z" fill="#145C61"/>
<path d="M241.501 166.871L242.738 169.134L245 170.371L242.738 171.608L241.501 173.871L240.263 171.608L238 170.371L240.263 169.134L241.501 166.871Z" fill="#145C61"/>
<defs>
<filter id="filter0_d_2808_11302" x="78.3128" y="137.485" width="41.9728" height="49.585" filterUnits="userSpaceOnUse" color-interpolation-filters="sRGB">
<feFlood flood-opacity="0" result="BackgroundImageFix"/>
<feColorMatrix in="SourceAlpha" type="matrix" values="0 0 0 0 0 0 0 0 0 0 0 0 0 0 0 0 0 0 127 0" result="hardAlpha"/>
<feOffset/>
<feGaussianBlur stdDeviation="0.343576"/>
<feComposite in2="hardAlpha" operator="out"/>
<feColorMatrix type="matrix" values="0 0 0 0 0 0 0 0 0 0 0 0 0 0 0 0 0 0 0.25 0"/>
<feBlend mode="normal" in2="BackgroundImageFix" result="effect1_dropShadow_2808_11302"/>
<feBlend mode="normal" in="SourceGraphic" in2="effect1_dropShadow_2808_11302" result="shape"/>
</filter>
</defs>
</svg>
